<?xml version="1.0" standalone="no"?><svg xmlns="http://www.w3.org/2000/svg" viewBox="0 0 1440 320"><path fill="#d7e8f6" fill-opacity="1" d="M0,64L34.3,90.7C68.6,117,137,171,206,181.3C274.3,192,343,160,411,144C480,128,549,128,617,122.7C685.7,117,754,107,823,133.3C891.4,160,960,224,1029,218.7C1097.1,213,1166,139,1234,90.7C1302.9,43,1371,21,1406,10.7L1440,0L1440,320L1405.7,320C1371.4,320,1303,320,1234,320C1165.7,320,1097,320,1029,320C960,320,891,320,823,320C754.3,320,686,320,617,320C548.6,320,480,320,411,320C342.9,320,274,320,206,320C137.1,320,69,320,34,320L0,320Z"></path></svg>