<svg width="3118" height="8308" viewBox="0 0 3118 8308" fill="none" xmlns="http://www.w3.org/2000/svg">
<path d="M999.894 1419.54C945.606 1990.08 955.872 2347.78 1030.69 2492.64C1142.92 2709.94 1409.77 2796.85 1521.31 3268.22C1632.86 3739.58 1972.96 3375.19 2031.12 2566.18C2089.29 1757.18 2194.02 510.239 1641.78 510.239C1273.62 510.239 1059.66 813.332 999.894 1419.54Z" fill="#FFFA72"/>
<path d="M95.8766 2546.03C-56.1321 4143.55 -27.3856 5145.11 182.101 5550.73C496.338 6159.16 1243.53 6402.52 1555.85 7722.36C1868.17 9042.17 2820.46 8021.86 2983.32 5756.65C3146.19 3491.43 3439.42 0 1893.16 0C862.304 0 263.218 848.659 95.8766 2546.03Z" fill="#87ADBC"/>
<path d="M171.211 2452.15C27.3457 3964.09 54.5522 4912 252.816 5295.89C550.219 5871.72 1257.38 6102.05 1552.97 7351.18C1848.56 8600.28 2749.83 7634.64 2903.97 5490.77C3058.11 3346.91 3335.64 42.5205 1872.21 42.5205C896.58 42.5205 329.587 845.716 171.211 2452.15Z" fill="#77A2B3"/>
<path d="M246.547 2358.28C110.824 3784.63 136.491 4678.89 323.532 5041.05C604.101 5584.29 1271.24 5801.58 1550.1 6980C1828.95 8158.4 2679.21 7247.41 2824.62 5224.9C2970.04 3202.39 3231.85 85.0391 1851.26 85.0391C930.857 85.0391 395.958 842.77 246.547 2358.28Z" fill="#6797AA"/>
<path d="M321.881 2264.41C194.303 3605.18 218.429 4445.78 394.248 4786.21C657.983 5296.85 1285.09 5501.11 1547.22 6608.82C1809.34 7716.52 2608.58 6860.19 2745.27 4959.03C2881.96 3057.87 3128.07 127.56 1830.31 127.56C965.133 127.56 462.328 839.827 321.881 2264.41Z" fill="#598B9F"/>
<path d="M397.216 2170.53C277.78 3425.72 300.367 4212.67 464.963 4531.37C711.864 5009.42 1298.94 5200.63 1544.34 6237.65C1789.73 7274.64 2537.96 6472.97 2665.92 4693.16C2793.89 2913.35 3024.29 170.08 1809.37 170.08C999.409 170.08 528.698 836.884 397.216 2170.53Z" fill="#507D8F"/>
<path d="M472.55 2076.65C361.258 3246.27 382.305 3979.56 535.679 4276.53C765.745 4721.98 1312.8 4900.16 1541.46 5866.47C1770.12 6832.76 2467.33 6085.75 2586.57 4427.29C2705.81 2768.83 2920.5 212.598 1788.42 212.598C1033.68 212.598 595.068 833.937 472.55 2076.65Z" fill="#476F7F"/>
<path d="M547.886 1982.78C444.737 3066.81 464.244 3746.44 606.395 4021.68C819.627 4434.55 1326.65 4599.69 1538.58 5495.29C1750.51 6390.87 2396.71 5698.52 2507.22 4161.41C2617.74 2624.3 2816.72 255.117 1767.47 255.117C1067.96 255.117 661.439 830.992 547.886 1982.78Z" fill="#3E616F"/>
<path d="M623.221 1888.91C528.215 2887.35 546.182 3513.33 677.111 3766.84C873.509 4147.11 1340.5 4299.21 1535.71 5124.11C1730.9 5948.99 2326.08 5311.3 2427.87 3895.54C2529.66 2479.78 2712.94 297.637 1746.52 297.637C1102.24 297.637 727.809 828.049 623.221 1888.91Z" fill="#35535F"/>
<path d="M698.555 1795.03C611.693 2707.9 628.12 3280.22 747.826 3512.01C927.39 3859.68 1354.36 3998.74 1532.83 4752.93C1711.29 5507.11 2255.46 4924.08 2348.52 3629.67C2441.59 2335.26 2609.15 340.159 1725.57 340.159C1136.51 340.159 794.179 825.107 698.555 1795.03Z" fill="#2C454F"/>
<path d="M773.89 1701.16C695.171 2528.44 710.057 3047.11 818.541 3257.16C981.271 3572.24 1368.21 3698.27 1529.95 4381.76C1691.68 5065.23 2184.83 4536.86 2269.17 3363.8C2353.51 2190.74 2505.37 382.678 1704.62 382.678C1170.79 382.678 860.548 822.162 773.89 1701.16Z" fill="#23373F"/>
<path d="M849.225 1607.28C778.65 2348.99 791.996 2814 889.258 3002.32C1035.15 3284.81 1382.06 3397.8 1527.07 4010.58C1672.07 4623.34 2114.21 4149.63 2189.82 3097.93C2265.44 2046.22 2401.59 425.197 1683.68 425.197C1205.07 425.197 926.919 819.217 849.225 1607.28Z" fill="#1A292F"/>
<path d="M924.56 1513.41C862.128 2169.53 873.934 2580.89 959.973 2747.48C1089.04 2997.37 1395.92 3097.33 1524.19 3639.4C1652.47 4181.46 2043.58 3762.41 2110.48 2832.06C2177.37 1901.7 2297.8 467.719 1662.73 467.719C1239.34 467.719 993.289 816.275 924.56 1513.41Z" fill="#111B1F"/>
</svg>
